REM DIRINDEX 1\2\4,1\2\5,1\2\6,1\3\7,1\3\8,1\3\9,1\3\10
REM DIRNAME cjc057,folder01,folder02,folder03,folder04,folder05,folder06,folder07,folder08,folder09
TITLE ""
FILE "b_066.mp3" MP3
  TRACK 01 AUDIO
    TITLE "0:"
    INDEX 01 00:00:00
  TRACK 02 AUDIO
    TITLE "7:cjc057_06002"
    INDEX 01 00:00:09
  TRACK 03 AUDIO
    TITLE "0:"
    INDEX 01 00:01:40
  TRACK 04 AUDIO
    TITLE "8:cjc057_06003"
    INDEX 01 00:01:71
  TRACK 05 AUDIO
    TITLE "0:"
    INDEX 01 00:03:68
  TRACK 06 AUDIO
    TITLE "9:cjc057_06004"
    INDEX 01 00:04:33
  TRACK 07 AUDIO
    TITLE "0:"
    INDEX 01 00:08:05
  TRACK 08 AUDIO
    TITLE "7:cjc057_06005"
    INDEX 01 00:09:10
  TRACK 09 AUDIO
    TITLE "0:"
    INDEX 01 00:10:29
  TRACK 10 AUDIO
    TITLE "8:cjc057_06006"
    INDEX 01 00:10:59
  TRACK 11 AUDIO
    TITLE "0:"
    INDEX 01 00:12:48
  TRACK 12 AUDIO
    TITLE "9:cjc057_06007"
    INDEX 01 00:13:20
  TRACK 13 AUDIO
    TITLE "0:"
    INDEX 01 00:16:63
  TRACK 14 AUDIO
    TITLE "7:cjc057_06008"
    INDEX 01 00:17:69
  TRACK 15 AUDIO
    TITLE "0:"
    INDEX 01 00:19:16
  TRACK 16 AUDIO
    TITLE "8:cjc057_06009"
    INDEX 01 00:19:48
  TRACK 17 AUDIO
    TITLE "0:"
    INDEX 01 00:21:09
  TRACK 18 AUDIO
    TITLE "9:cjc057_06010"
    INDEX 01 00:21:55
  TRACK 19 AUDIO
    TITLE "0:"
    INDEX 01 00:25:46
  TRACK 20 AUDIO
    TITLE "7:cjc057_06011"
    INDEX 01 00:26:52
  TRACK 21 AUDIO
    TITLE "0:"
    INDEX 01 00:28:13
  TRACK 22 AUDIO
    TITLE "8:cjc057_06012"
    INDEX 01 00:28:45
  TRACK 23 AUDIO
    TITLE "0:"
    INDEX 01 00:31:43
  TRACK 24 AUDIO
    TITLE "9:cjc057_06013"
    INDEX 01 00:32:07
  TRACK 25 AUDIO
    TITLE "0:"
    INDEX 01 00:35:51
  TRACK 26 AUDIO
    TITLE "7:cjc057_06014"
    INDEX 01 00:36:56
  TRACK 27 AUDIO
    TITLE "0:"
    INDEX 01 00:38:06
  TRACK 28 AUDIO
    TITLE "8:cjc057_06015"
    INDEX 01 00:38:37
  TRACK 29 AUDIO
    TITLE "0:"
    INDEX 01 00:40:73
  TRACK 30 AUDIO
    TITLE "9:cjc057_06016"
    INDEX 01 00:41:42
  TRACK 31 AUDIO
    TITLE "0:"
    INDEX 01 00:45:61
  TRACK 32 AUDIO
    TITLE "7:cjc057_06017"
    INDEX 01 00:46:66
  TRACK 33 AUDIO
    TITLE "0:"
    INDEX 01 00:48:12
  TRACK 34 AUDIO
    TITLE "8:cjc057_06018"
    INDEX 01 00:48:44
  TRACK 35 AUDIO
    TITLE "0:"
    INDEX 01 00:50:56
  TRACK 36 AUDIO
    TITLE "9:cjc057_06019"
    INDEX 01 00:51:24
  TRACK 37 AUDIO
    TITLE "0:"
    INDEX 01 00:55:18
  TRACK 38 AUDIO
    TITLE "7:cjc057_06020"
    INDEX 01 00:56:22
  TRACK 39 AUDIO
    TITLE "0:"
    INDEX 01 00:57:37
  TRACK 40 AUDIO
    TITLE "8:cjc057_06021"
    INDEX 01 00:57:70
  TRACK 41 AUDIO
    TITLE "0:"
    INDEX 01 01:00:41
  TRACK 42 AUDIO
    TITLE "9:cjc057_06022"
    INDEX 01 01:01:11
  TRACK 43 AUDIO
    TITLE "0:"
    INDEX 01 01:04:33
  TRACK 44 AUDIO
    TITLE "7:cjc057_06023"
    INDEX 01 01:05:42
  TRACK 45 AUDIO
    TITLE "0:"
    INDEX 01 01:06:63
  TRACK 46 AUDIO
    TITLE "8:cjc057_06024"
    INDEX 01 01:07:19
  TRACK 47 AUDIO
    TITLE "0:"
    INDEX 01 01:08:60
  TRACK 48 AUDIO
    TITLE "9:cjc057_06025"
    INDEX 01 01:09:24
  TRACK 49 AUDIO
    TITLE "0:"
    INDEX 01 01:11:45
  TRACK 50 AUDIO
    TITLE "7:cjc057_06026"
    INDEX 01 01:12:52
  TRACK 51 AUDIO
    TITLE "0:"
    INDEX 01 01:14:04
  TRACK 52 AUDIO
    TITLE "8:cjc057_06027"
    INDEX 01 01:14:37
  TRACK 53 AUDIO
    TITLE "0:"
    INDEX 01 01:16:34
  TRACK 54 AUDIO
    TITLE "9:cjc057_06028"
    INDEX 01 01:17:00
  TRACK 55 AUDIO
    TITLE "0:"
    INDEX 01 01:21:00
  TRACK 56 AUDIO
    TITLE "7:cjc057_06029"
    INDEX 01 01:22:03
  TRACK 57 AUDIO
    TITLE "0:"
    INDEX 01 01:23:32
  TRACK 58 AUDIO
    TITLE "8:cjc057_06030"
    INDEX 01 01:23:60
  TRACK 59 AUDIO
    TITLE "0:"
    INDEX 01 01:26:46
  TRACK 60 AUDIO
    TITLE "9:cjc057_06031"
    INDEX 01 01:27:14
  TRACK 61 AUDIO
    TITLE "0:"
    INDEX 01 01:31:04
  TRACK 62 AUDIO
    TITLE "7:cjc057_06032"
    INDEX 01 01:32:10
  TRACK 63 AUDIO
    TITLE "0:"
    INDEX 01 01:33:46
  TRACK 64 AUDIO
    TITLE "8:cjc057_06033"
    INDEX 01 01:34:03
  TRACK 65 AUDIO
    TITLE "0:"
    INDEX 01 01:35:69
  TRACK 66 AUDIO
    TITLE "9:cjc057_06034"
    INDEX 01 01:36:37
  TRACK 67 AUDIO
    TITLE "0:"
    INDEX 01 01:40:68
  TRACK 68 AUDIO
    TITLE "7:cjc057_06035"
    INDEX 01 01:42:00
  TRACK 69 AUDIO
    TITLE "0:"
    INDEX 01 01:43:29
  TRACK 70 AUDIO
    TITLE "8:cjc057_06036"
    INDEX 01 01:43:58
  TRACK 71 AUDIO
    TITLE "0:"
    INDEX 01 01:45:24
  TRACK 72 AUDIO
    TITLE "9:cjc057_06037"
    INDEX 01 01:45:61
  TRACK 73 AUDIO
    TITLE "0:"
    INDEX 01 01:49:41
